<svg width="20" height="20" viewBox="0 0 20 20" fill="none" xmlns="http://www.w3.org/2000/svg">
<path d="M16.7309 6.57986L10.5487 0.230824C10.4038 0.0830815 10.2081 0 10.0038 0C9.79975 0 9.6038 0.0830815 9.45907 0.230824L0.185824 9.75437C0.0153997 9.9588 -0.0425579 10.2378 0.031787 10.4958C0.10596 10.7537 0.302429 10.9555 0.553562 11.0316C0.804712 11.108 1.0764 11.0484 1.27546 10.8734L3.04506 9.05606V16.6667C3.04506 17.2983 3.28931 17.9037 3.724 18.3504C4.15885 18.7968 4.74843 19.0476 5.36337 19.0476H14.6366C15.2516 19.0476 15.8411 18.7968 16.276 18.3504C16.7107 17.9038 16.9549 17.2983 16.9549 16.6667V9.05606L18.7245 10.8734C18.9236 11.0484 19.1953 11.108 19.4464 11.0316C19.6976 10.9554 19.8941 10.7537 19.9682 10.4958C20.0426 10.2378 19.9846 9.95881 19.8142 9.75437L16.7309 6.57986ZM15.4094 16.6671C15.4094 16.8776 15.328 17.0795 15.1831 17.2283C15.0382 17.3771 14.8416 17.4607 14.6366 17.4607H5.36339C5.15847 17.4607 4.96182 17.3771 4.81693 17.2283C4.67204 17.0795 4.59062 16.8776 4.59062 16.6671V7.46917L10 1.91377L15.4094 7.46917V16.6671Z" fill="#FAA735"/>
</svg>
