<svg width="20" height="20" viewBox="0 0 20 20" fill="none" xmlns="http://www.w3.org/2000/svg">
<path fill-rule="evenodd" clip-rule="evenodd" d="M10 20C7.34781 20 4.80432 18.9464 2.92898 17.071C1.05356 15.1957 0 12.6521 0 10C0 7.34788 1.05356 4.80432 2.92898 2.92898C4.80425 1.05356 7.34788 0 10 0C12.6521 0 15.1957 1.05356 17.071 2.92898C18.9464 4.80425 20 7.34788 20 10C20 12.6521 18.9464 15.1957 17.071 17.071C15.1957 18.9464 12.6521 20 10 20ZM10 1.66692C7.78991 1.66692 5.67039 2.54484 4.10754 4.10761C2.54477 5.67039 1.66685 7.79009 1.66685 10.0001C1.66685 12.2101 2.54477 14.3297 4.10754 15.8925C5.67032 17.4553 7.79002 18.3332 10 18.3332C12.21 18.3332 14.3296 17.4553 15.8925 15.8925C17.4552 14.3298 18.3332 12.2101 18.3332 10.0001C18.3332 8.53733 17.9481 7.10027 17.2168 5.83332C16.4854 4.56657 15.4333 3.51455 14.1666 2.78312C12.8997 2.05181 11.4627 1.66677 9.99986 1.66677L10 1.66692ZM11.8584 13.0836L9.41672 10.6344C9.24457 10.4652 9.15347 10.2303 9.16672 9.98936V5.83367C9.16672 5.53596 9.32548 5.26086 9.58329 5.112C9.8411 4.96314 10.1589 4.96314 10.4167 5.112C10.6745 5.26086 10.8333 5.53596 10.8333 5.83367V9.60936L13.0833 11.8593V11.8595C13.302 12.0782 13.3873 12.3972 13.3072 12.6958C13.227 12.9947 12.9934 13.228 12.6946 13.308C12.3958 13.3879 12.077 13.3024 11.8584 13.0835L11.8584 13.0836Z" fill="#780429"/>
</svg>
