<svg width="30" height="30" viewBox="0 0 30 30" fill="none" xmlns="http://www.w3.org/2000/svg">
<path d="M27.2226 14.9985C27.2226 15.6095 27.181 16.2205 27.1011 16.828C27.1185 16.7065 27.1358 16.5816 27.1497 16.46C26.9865 17.6509 26.6706 18.8173 26.2019 19.9248C26.2471 19.8137 26.2957 19.7026 26.3408 19.5915C25.8825 20.6747 25.2854 21.6919 24.5668 22.6223C24.6397 22.5286 24.7126 22.4348 24.7855 22.3411C24.0773 23.2507 23.258 24.07 22.3483 24.7783C22.4421 24.7054 22.5358 24.6325 22.6295 24.5596C21.6991 25.2782 20.6819 25.8754 19.5987 26.3336C19.7098 26.2884 19.8209 26.2398 19.932 26.1947C18.8246 26.6599 17.6581 26.9793 16.4673 27.1425C16.5888 27.1251 16.7137 27.1078 16.8353 27.0939C15.6201 27.2536 14.3877 27.2536 13.1726 27.0939C13.2941 27.1113 13.4191 27.1286 13.5406 27.1425C12.3498 26.9793 11.1833 26.6634 10.0759 26.1947C10.187 26.2398 10.2981 26.2885 10.4091 26.3336C9.326 25.8753 8.30876 25.2782 7.37835 24.5596C7.47209 24.6325 7.56582 24.7054 7.65956 24.7783C6.74998 24.0701 5.93067 23.2507 5.22239 22.3411C5.2953 22.4348 5.36821 22.5286 5.44111 22.6223C4.72249 21.6919 4.12531 20.6747 3.66709 19.5915C3.71222 19.7026 3.76083 19.8137 3.80596 19.9248C3.34075 18.8173 3.02137 17.6509 2.85816 16.46C2.87552 16.5816 2.89288 16.7065 2.90676 16.828C2.74707 15.6129 2.74707 14.3805 2.90676 13.1654C2.8894 13.2869 2.87204 13.4119 2.85816 13.5334C3.02133 12.3426 3.33726 11.1761 3.80596 10.0687C3.76082 10.1797 3.71222 10.2908 3.66709 10.4019C4.12536 9.31879 4.72249 8.30155 5.44111 7.37114C5.36821 7.46488 5.2953 7.55861 5.22239 7.65235C5.93061 6.74277 6.74992 5.92346 7.65956 5.21518C7.56582 5.28809 7.47209 5.361 7.37835 5.4339C8.30876 4.71528 9.326 4.11809 10.4091 3.65988C10.2981 3.70501 10.187 3.75361 10.0759 3.79874C11.1833 3.33354 12.3498 3.01416 13.5406 2.85095C13.4191 2.86831 13.2941 2.88566 13.1726 2.89955C14.3877 2.73985 15.6202 2.73985 16.8353 2.89955C16.7137 2.88219 16.5888 2.86483 16.4673 2.85095C17.6581 3.01412 18.8246 3.33004 19.932 3.79874C19.8209 3.75361 19.7098 3.70501 19.5987 3.65988C20.6819 4.11814 21.6991 4.71528 22.6295 5.4339C22.5358 5.361 22.4421 5.28809 22.3483 5.21518C23.2579 5.9234 24.0772 6.74271 24.7855 7.65235C24.7126 7.55861 24.6397 7.46488 24.5668 7.37114C25.2854 8.30155 25.8826 9.31879 26.3408 10.4019C26.2957 10.2908 26.2471 10.1797 26.2019 10.0687C26.6671 11.1761 26.9865 12.3426 27.1497 13.5334C27.1324 13.4119 27.115 13.2869 27.1011 13.1654C27.181 13.7764 27.2226 14.3875 27.2226 14.9985C27.2226 15.7241 27.8614 16.4219 28.6113 16.3872C29.3612 16.3524 30 15.7761 30 14.9985C29.9931 11.9538 29.0626 8.89175 27.2921 6.40926C26.8269 5.75659 26.3235 5.13167 25.768 4.55537C25.2195 3.98948 24.6223 3.48607 23.9974 3.00696C22.8066 2.09389 21.4769 1.39958 20.0674 0.882258C17.1651 -0.183554 13.8808 -0.277318 10.9088 0.566329C8.04811 1.37872 5.40265 3.06945 3.51049 5.36772C3.00014 5.98569 2.52454 6.6349 2.11139 7.32229C1.70173 8.00619 1.36845 8.72139 1.0664 9.45741C0.483152 10.8808 0.160311 12.3945 0.042233 13.929C-0.193847 16.9841 0.566462 20.1295 2.15653 22.7506C3.69103 25.2814 5.99971 27.3853 8.70414 28.6074C9.44016 28.9406 10.1935 29.2323 10.9747 29.451C11.7697 29.6732 12.5855 29.8086 13.4048 29.9058C14.9637 30.0863 16.5502 29.9891 18.0882 29.6766C21.0148 29.083 23.7679 27.5346 25.8267 25.3787C27.8993 23.2088 29.3435 20.4037 29.7949 17.4357C29.9164 16.6268 29.9997 15.8179 29.9997 14.9985C29.9997 14.2729 29.361 13.5751 28.611 13.6099C27.8577 13.6446 27.2223 14.2209 27.2223 14.9985L27.2226 14.9985Z" fill="#780429"/>
<path d="M16.3562 21.6471V18.9844V14.7419V13.7664C16.3562 13.0408 15.7175 12.343 14.9675 12.3777C14.2142 12.4124 13.5789 12.9887 13.5789 13.7664V16.4292V20.6716V21.6471C13.5789 22.3728 14.2176 23.0706 14.9675 23.0358C15.7209 23.0011 16.3562 22.4248 16.3562 21.6471Z" fill="#780429"/>
<path d="M16.3562 9.21843V8.28104C16.3562 7.55543 15.7175 6.85763 14.9675 6.89236C14.2142 6.92707 13.5789 7.50338 13.5789 8.28104V9.21843C13.5789 9.94404 14.2176 10.6418 14.9675 10.6071C15.7209 10.5724 16.3562 9.99609 16.3562 9.21843Z" fill="#780429"/>
</svg>
