<svg width="27" height="27" viewBox="0 0 27 27" fill="none" xmlns="http://www.w3.org/2000/svg">
<path d="M0.858613 16.7675L0.717122 16.909L0.858579 17.0504L3.32067 19.5125L3.3207 19.5125L3.69938 19.8914L3.84084 20.0329L3.9823 19.8914L4.36097 19.5125C5.22877 18.6447 6.61944 18.6449 7.48728 19.5125C8.3551 20.3804 8.3551 21.771 7.48728 22.6388L7.10842 23.0175L6.96689 23.159L7.10842 23.3004L7.48728 23.6791L7.48732 23.6791L9.94941 26.1412L10.0908 26.2826L10.2322 26.1413L10.6111 25.7626L10.6112 25.7625L26.1414 10.2323L26.2828 10.0908L26.1414 9.94941L23.3006 7.10857L23.1592 6.96715L23.0177 7.10857L22.639 7.48728C21.7712 8.3551 20.3805 8.3551 19.5127 7.48728C18.6449 6.61946 18.6449 5.2288 19.5127 4.36098L19.8914 3.98226L20.0329 3.84084L19.8914 3.69942L17.0506 0.858579L16.9092 0.717157L16.7677 0.858579L1.23751 16.3888L1.23748 16.3889L0.858613 16.7675ZM3.89955 18.0106L2.79808 16.909L12.1744 7.53264L19.4673 14.8255L10.091 24.2019L8.98333 23.0942C9.92593 21.668 9.78402 19.7281 8.5277 18.472C7.27198 17.2163 5.32678 17.0679 3.89955 18.0106ZM13.2149 6.49218L16.9094 2.7977L18.0111 3.89939C17.0685 5.3266 17.2167 7.27181 18.4724 8.52755C19.7286 9.78369 21.6684 9.92559 23.0946 8.98316L24.2023 10.0908L20.5078 13.7853L13.2149 6.49218Z" fill="#780429" stroke="#780429" stroke-width="0.4"/>
</svg>
